<svg width="16" height="16" viewBox="0 0 16 16" fill="none" xmlns="http://www.w3.org/2000/svg">
<path d="M7.99992 1.3335C11.6818 1.3335 14.6666 4.31826 14.6666 8.00016C14.6666 11.682 11.6818 14.6668 7.99992 14.6668C4.31802 14.6668 1.33325 11.682 1.33325 8.00016C1.33325 4.31826 4.31802 1.3335 7.99992 1.3335ZM8.10639 10.6668C6.74945 10.6668 5.5278 11.246 4.67509 12.1706C5.58685 12.8984 6.74259 13.3335 7.99992 13.3335C9.31292 13.3335 10.5151 12.859 11.4443 12.0722C10.597 11.2051 9.41452 10.6668 8.10639 10.6668ZM7.99992 2.66683C5.0544 2.66683 2.66659 5.05464 2.66659 8.00016C2.66659 9.20723 3.06759 10.3206 3.74363 11.2144C4.83751 10.0562 6.38755 9.3335 8.10639 9.3335C9.76265 9.3335 11.2621 10.0046 12.3478 11.0896C12.9683 10.218 13.3333 9.1517 13.3333 8.00016C13.3333 5.05464 10.9455 2.66683 7.99992 2.66683ZM7.99992 3.3335C9.47265 3.3335 10.6666 4.5274 10.6666 6.00016C10.6666 7.4729 9.47265 8.66683 7.99992 8.66683C6.52716 8.66683 5.33325 7.4729 5.33325 6.00016C5.33325 4.5274 6.52716 3.3335 7.99992 3.3335ZM7.99992 4.66683C7.26352 4.66683 6.66659 5.26378 6.66659 6.00016C6.66659 6.73656 7.26352 7.3335 7.99992 7.3335C8.73632 7.3335 9.33325 6.73656 9.33325 6.00016C9.33325 5.26378 8.73632 4.66683 7.99992 4.66683Z" fill="#040B20"/>
</svg>
