<svg width="16" height="17" viewBox="0 0 16 17" fill="none" xmlns="http://www.w3.org/2000/svg">
<path d="M4.66683 3.83332V1.83332C4.66683 1.46514 4.96531 1.16666 5.3335 1.16666H10.6668C11.035 1.16666 11.3335 1.46514 11.3335 1.83332V3.83332H14.0002C14.3684 3.83332 14.6668 4.1318 14.6668 4.49999V13.8333C14.6668 14.2015 14.3684 14.5 14.0002 14.5H2.00016C1.63198 14.5 1.3335 14.2015 1.3335 13.8333V4.49999C1.3335 4.1318 1.63198 3.83332 2.00016 3.83332H4.66683ZM6.00016 9.16666H2.66683V13.1667H13.3335V9.16666H10.0002V11.1667H6.00016V9.16666ZM13.3335 5.16666H2.66683V7.83332H6.00016V6.49999H10.0002V7.83332H13.3335V5.16666ZM7.3335 7.83332V9.83332H8.66683V7.83332H7.3335ZM6.00016 2.49999V3.83332H10.0002V2.49999H6.00016Z" fill="#040B20"/>
</svg>
