<svg width="16" height="17" viewBox="0 0 16 17" fill="none" xmlns="http://www.w3.org/2000/svg">
<path d="M1.33203 14.5V13.1667L2.66536 13.1666V3.7231C2.66536 3.40091 2.89578 3.12482 3.21277 3.06718L9.52713 1.91912C9.74446 1.8796 9.95273 2.02376 9.99227 2.24111C9.99653 2.26472 9.99867 2.28867 9.99867 2.31266V3.1666L12.6653 3.16672C13.0335 3.16672 13.332 3.46519 13.332 3.83338V13.1666L14.6653 13.1667V14.5H11.9987V4.50005L9.99867 4.49993V14.5H1.33203ZM8.66533 3.431L3.9987 4.27948V13.1667H8.66533V3.431ZM7.99867 7.83337V9.16671H6.66536V7.83337H7.99867Z" fill="#040B20"/>
</svg>
