<svg width="156" height="31" viewBox="0 0 156 31" fill="none" xmlns="http://www.w3.org/2000/svg">
<path d="M1.81982 5.91295H8.74551C10.1944 5.91295 11.4381 6.12642 12.4767 6.55334C13.5154 6.98028 14.314 7.61213 14.8726 8.44892C15.4312 9.28572 15.7105 10.3146 15.7105 11.5357C15.7105 12.5005 15.5359 13.3373 15.1868 14.046C14.8377 14.7547 14.3445 15.3482 13.7074 15.8263C13.079 16.3045 12.3371 16.6802 11.4818 16.9534L10.3558 17.517H4.24184L4.21566 14.7376H8.78478C9.52668 14.7376 10.142 14.6096 10.6308 14.3534C11.1195 14.0973 11.4861 13.7429 11.7305 13.2904C11.9836 12.8378 12.1102 12.3212 12.1102 11.7406C12.1102 11.1173 11.988 10.5793 11.7436 10.1268C11.4992 9.66569 11.1283 9.31134 10.6308 9.06372C10.1333 8.8161 9.50484 8.69227 8.74551 8.69227H5.42013V24.5614H1.81982V5.91295ZM12.5815 24.5614L8.16946 16.2106L11.9792 16.1978L16.4436 24.3821V24.5614H12.5815ZM24.9666 24.8175C23.893 24.8175 22.9286 24.6468 22.0732 24.3053C21.2179 23.9636 20.4891 23.4898 19.8868 22.8835C19.2933 22.2687 18.8351 21.5558 18.5122 20.7446C18.198 19.9249 18.0409 19.0454 18.0409 18.1062V17.5938C18.0409 16.5265 18.198 15.5574 18.5122 14.6864C18.8264 13.8069 19.2715 13.0513 19.8476 12.4194C20.4236 11.7875 21.1131 11.3008 21.9161 10.9593C22.7191 10.6177 23.605 10.447 24.5737 10.447C25.5774 10.447 26.4635 10.6135 27.2315 10.9465C27.9996 11.271 28.6411 11.732 29.1559 12.3298C29.671 12.9275 30.0593 13.6447 30.3213 14.4815C30.5831 15.3097 30.714 16.2276 30.714 17.2352V18.6569H19.6119V16.3258H27.31V16.0697C27.2925 15.5317 27.1879 15.0408 26.9958 14.5968C26.8038 14.1442 26.5071 13.7856 26.1057 13.5209C25.704 13.2476 25.1848 13.111 24.5476 13.111C24.0327 13.111 23.5832 13.222 23.1991 13.444C22.8238 13.6575 22.5096 13.9649 22.2565 14.3662C22.0121 14.759 21.8288 15.2286 21.7066 15.7751C21.5844 16.3216 21.5233 16.9278 21.5233 17.5938V18.1062C21.5233 18.6868 21.6019 19.2247 21.759 19.72C21.9248 20.2152 22.1649 20.6464 22.4791 21.0136C22.802 21.3722 23.186 21.654 23.6312 21.8589C24.085 22.0553 24.6 22.1535 25.176 22.1535C25.9004 22.1535 26.5551 22.0169 27.1399 21.7436C27.7334 21.4619 28.2482 21.0477 28.6848 20.5012L30.4259 22.2687C30.1292 22.6957 29.7278 23.1055 29.2215 23.4983C28.724 23.8911 28.1217 24.2113 27.4148 24.4588C26.7077 24.698 25.8916 24.8175 24.9666 24.8175ZM38.844 22.1535C39.333 22.1535 39.7693 22.0596 40.1532 21.8717C40.5374 21.6838 40.8428 21.4191 41.0697 21.0776C41.3054 20.7361 41.4319 20.339 41.4495 19.8865H44.7094C44.6918 20.8257 44.4213 21.6668 43.8977 22.4096C43.3739 23.1525 42.6758 23.7417 41.8029 24.1772C40.9388 24.6041 39.9699 24.8175 38.8964 24.8175C37.8054 24.8175 36.8541 24.6382 36.0424 24.2795C35.2307 23.9209 34.5543 23.4215 34.0131 22.7811C33.4808 22.1407 33.0793 21.3978 32.8088 20.5525C32.5468 19.7072 32.4159 18.8021 32.4159 17.8372V17.4273C32.4159 16.4625 32.5468 15.5574 32.8088 14.712C33.0793 13.8667 33.4808 13.1238 34.0131 12.4834C34.5543 11.843 35.2307 11.3435 36.0424 10.9849C36.8541 10.6263 37.801 10.447 38.8833 10.447C40.0267 10.447 41.0305 10.6647 41.8946 11.1002C42.7674 11.5357 43.4482 12.1504 43.9369 12.9445C44.4344 13.7386 44.6918 14.6736 44.7094 15.7495H41.4495C41.4319 15.2542 41.3186 14.8102 41.109 14.4174C40.8996 14.0247 40.6029 13.7087 40.2188 13.4697C39.8346 13.2306 39.3679 13.111 38.818 13.111C38.2332 13.111 37.7445 13.2306 37.3515 13.4697C36.9676 13.7087 36.6664 14.0375 36.4482 14.4559C36.2388 14.8657 36.0904 15.3268 36.0031 15.8391C35.9246 16.3429 35.8854 16.8723 35.8854 17.4273V17.8372C35.8854 18.4007 35.9246 18.9387 36.0031 19.451C36.0904 19.9633 36.2388 20.4244 36.4482 20.8343C36.6664 21.2356 36.9676 21.5558 37.3515 21.7948C37.7445 22.0339 38.242 22.1535 38.844 22.1535ZM50.4699 13.5337V24.5614H47.0136V10.7031H50.2866L50.4699 13.5337ZM54.7772 10.6135L54.7248 13.7642C54.5328 13.7301 54.3146 13.7045 54.0701 13.6874C53.8344 13.6703 53.6119 13.6618 53.4025 13.6618C52.8701 13.6618 52.4031 13.7344 52.0017 13.8795C51.6002 14.0161 51.2641 14.2168 50.9935 14.4815C50.7317 14.7462 50.5309 15.0707 50.3912 15.4549C50.2515 15.8306 50.173 16.2575 50.1557 16.7357L49.4094 16.646C49.4094 15.7666 49.501 14.9511 49.6843 14.1997C49.8676 13.4483 50.1338 12.7908 50.4828 12.2273C50.8321 11.6637 51.2685 11.2283 51.792 10.9209C52.3246 10.6049 52.9355 10.447 53.625 10.447C53.8171 10.447 54.0221 10.4641 54.2403 10.4982C54.4672 10.5238 54.6461 10.5622 54.7772 10.6135ZM65.1066 21.2697V10.7031H68.5893V24.5614H65.3163L65.1066 21.2697ZM65.552 18.4007L66.6254 18.3751C66.6254 19.3058 66.5206 20.164 66.3112 20.9495C66.1019 21.7351 65.7745 22.4182 65.3294 22.9988C64.8929 23.5709 64.3386 24.0191 63.6666 24.3437C62.9945 24.6596 62.2004 24.8175 61.2839 24.8175C60.5856 24.8175 59.9484 24.7235 59.3724 24.5359C58.7964 24.3394 58.2989 24.0363 57.8799 23.6264C57.4697 23.208 57.1511 22.6743 56.9242 22.0254C56.6973 21.3679 56.5839 20.5781 56.5839 19.6559V10.7031H60.04V19.6815C60.04 20.1426 60.0924 20.5269 60.1973 20.8343C60.3106 21.1417 60.4634 21.3935 60.6555 21.5899C60.8561 21.7778 61.0874 21.9144 61.3492 21.9998C61.6198 22.0766 61.9079 22.1151 62.2133 22.1151C63.0513 22.1151 63.7102 21.9528 64.1904 21.6284C64.6791 21.2953 65.0281 20.8513 65.2378 20.2963C65.4471 19.7328 65.552 19.1009 65.552 18.4007ZM78.3559 10.7031V13.1366H70.2388V10.7031H78.3559ZM72.4121 7.29622H75.8816V20.5653C75.8816 20.9751 75.9381 21.2911 76.0517 21.5131C76.1651 21.7351 76.3355 21.8845 76.5624 21.9614C76.7893 22.0382 77.0599 22.0766 77.3741 22.0766C77.601 22.0766 77.8104 22.0638 78.0025 22.0382C78.1945 22.0126 78.3559 21.987 78.4868 21.9614L78.5 24.4972C78.2118 24.5912 77.8845 24.6682 77.5179 24.7278C77.1601 24.7877 76.7542 24.8175 76.3004 24.8175C75.5235 24.8175 74.843 24.6894 74.258 24.4333C73.6732 24.1686 73.2194 23.7459 72.8964 23.1653C72.5737 22.5761 72.4121 21.7991 72.4121 20.8343V7.29622ZM88.463 21.6155V15.2243C88.463 14.7547 88.3801 14.3491 88.2141 14.0076C88.0484 13.666 87.7954 13.4014 87.4548 13.2135C87.1146 13.0256 86.6824 12.9317 86.1588 12.9317C85.6962 12.9317 85.2903 13.0086 84.9413 13.1623C84.6008 13.316 84.339 13.5337 84.1557 13.8155C83.9724 14.0887 83.8807 14.4046 83.8807 14.7633H80.4114C80.4114 14.1912 80.5509 13.649 80.8302 13.1366C81.1095 12.6158 81.5066 12.1547 82.0217 11.7534C82.5452 11.3435 83.1695 11.0233 83.8939 10.7928C84.6271 10.5622 85.4473 10.447 86.3551 10.447C87.4288 10.447 88.3845 10.6263 89.2223 10.9849C90.0688 11.335 90.7323 11.8644 91.2123 12.5731C91.701 13.2818 91.9455 14.1741 91.9455 15.25V21.2953C91.9455 21.987 91.9891 22.5804 92.0763 23.0756C92.1724 23.5623 92.3121 23.985 92.4954 24.3437V24.5614H88.9737C88.8077 24.2113 88.6812 23.7673 88.5939 23.2294C88.5066 22.6829 88.463 22.1449 88.463 21.6155ZM88.9473 16.1209L88.9737 18.1318H86.7872C86.2461 18.1318 85.7703 18.1873 85.3601 18.2983C84.9498 18.4007 84.6139 18.5544 84.3522 18.7593C84.0901 18.9557 83.8939 19.1948 83.763 19.4766C83.6319 19.7498 83.5666 20.0615 83.5666 20.4116C83.5666 20.7531 83.645 21.0605 83.8023 21.3338C83.968 21.607 84.2037 21.8247 84.5091 21.987C84.8233 22.1407 85.1899 22.2175 85.6089 22.2175C86.2198 22.2175 86.7524 22.098 87.2062 21.8589C87.6601 21.6113 88.0135 21.3124 88.2665 20.9623C88.5198 20.6122 88.6551 20.2792 88.6724 19.9633L89.6674 21.4234C89.5453 21.7735 89.3619 22.1449 89.1175 22.5377C88.8732 22.9305 88.559 23.2977 88.1749 23.6392C87.791 23.9807 87.3283 24.2626 86.7872 24.4846C86.2461 24.7066 85.6177 24.8175 84.9018 24.8175C83.9856 24.8175 83.1651 24.6382 82.4407 24.2795C81.7162 23.9209 81.1444 23.43 80.7256 22.8067C80.3066 22.1834 80.0973 21.4747 80.0973 20.6806C80.0973 19.9462 80.2367 19.2973 80.516 18.7337C80.7954 18.1702 81.21 17.6963 81.7599 17.3121C82.3098 16.9193 82.9906 16.6247 83.8023 16.4283C84.6227 16.2234 85.5609 16.1209 86.6171 16.1209H88.9473ZM95.2054 22.9092C95.2054 22.3968 95.3843 21.9656 95.7421 21.6155C96.0999 21.2655 96.5843 21.0904 97.1953 21.0904C97.8064 21.0904 98.2908 21.2655 98.6486 21.6155C99.0064 21.9656 99.1853 22.3968 99.1853 22.9092C99.1853 23.4129 99.0064 23.8399 98.6486 24.1899C98.2908 24.5316 97.8064 24.7023 97.1953 24.7023C96.5843 24.7023 96.0999 24.5316 95.7421 24.1899C95.3843 23.8399 95.2054 23.4129 95.2054 22.9092ZM110.523 8.74351L105.09 24.5614H101.28L108.402 5.91295H110.837L110.523 8.74351ZM115.066 24.5614L109.607 8.74351L109.279 5.91295H111.727L118.889 24.5614H115.066ZM114.817 17.6323V20.4116H104.592V17.6323H114.817ZM124.322 10.7031V24.5614H120.853V10.7031H124.322ZM120.918 8.93564L123.484 5.04199H127.307L123.733 8.93564H120.918Z" fill="#040B20"/>
<path d="M148.038 3.49072L149.539 6.24254L152.351 7.71016L149.539 9.17779L148.038 11.9296L146.538 9.17779L143.725 7.71016L146.538 6.24254L148.038 3.49072ZM137.801 6.96828L140.834 12.5324L146.522 15.4999L140.834 18.4674L137.801 24.0314L134.767 18.4674L129.08 15.4999L134.767 12.5324L137.801 6.96828ZM151.072 20.3222L149.176 16.8446L147.28 20.3222L143.725 22.1768L147.28 24.0314L149.176 27.5092L151.072 24.0314L154.626 22.1768L151.072 20.3222Z" fill="url(#paint0_linear_184_387)"/>
<defs>
<linearGradient id="paint0_linear_184_387" x1="141.853" y1="3.49072" x2="141.853" y2="27.5092" gradientUnits="userSpaceOnUse">
<stop stop-color="#4300FF"/>
<stop offset="1" stop-color="#EB00FF"/>
</linearGradient>
</defs>
</svg>
