<svg width="16" height="16" viewBox="0 0 16 16" fill="none" xmlns="http://www.w3.org/2000/svg">
<path d="M7.33301 1.33334C10.645 1.33334 13.333 4.02134 13.333 7.33334C13.333 10.6453 10.645 13.3333 7.33301 13.3333C4.02101 13.3333 1.33301 10.6453 1.33301 7.33334C1.33301 4.02134 4.02101 1.33334 7.33301 1.33334ZM7.33301 12C9.91134 12 11.9997 9.91168 11.9997 7.33334C11.9997 4.75501 9.91134 2.66668 7.33301 2.66668C4.75467 2.66668 2.66634 4.75501 2.66634 7.33334C2.66634 9.91168 4.75467 12 7.33301 12ZM12.9899 12.0474L14.8755 13.933L13.9327 14.8758L12.0471 12.9902L12.9899 12.0474Z" fill="#686D79"/>
</svg>
