<svg width="40" height="40" viewBox="0 0 40 40" fill="none" xmlns="http://www.w3.org/2000/svg">
<path d="M19.9997 36.6667C10.7949 36.6667 3.33301 29.2047 3.33301 20C3.33301 10.7953 10.7949 3.33337 19.9997 3.33337C29.2043 3.33337 36.6663 10.7953 36.6663 20C36.6663 29.2047 29.2043 36.6667 19.9997 36.6667ZM19.9997 33.3334C27.3635 33.3334 33.333 27.3639 33.333 20C33.333 12.6362 27.3635 6.66671 19.9997 6.66671C12.6359 6.66671 6.66634 12.6362 6.66634 20C6.66634 27.3639 12.6359 33.3334 19.9997 33.3334ZM18.3373 26.6667L11.2663 19.5957L13.6234 17.2385L18.3373 21.9527L27.7655 12.5246L30.1225 14.8816L18.3373 26.6667Z" fill="#007E00"/>
</svg>
